<svg xmlns="http://www.w3.org/2000/svg" viewBox="0 0 32 32" width="32" height="32" role="img" aria-label="Shamway (Asset Pipeline)"><rect width="32" height="32" rx="7" fill="#7c4a14"/><g transform="translate(4 4)" fill="none" stroke="#f7f5f0" stroke-width="2" stroke-linecap="round" stroke-linejoin="round"><path d="M12 16h.01" /><path d="M16 16h.01" /><path d="M3 19a2 2 0 0 0 2 2h14a2 2 0 0 0 2-2V8.5a.5.5 0 0 0-.769-.422l-4.462 2.844A.5.5 0 0 1 15 10.5v-2a.5.5 0 0 0-.769-.422L9.77 10.922A.5.5 0 0 1 9 10.5V5a2 2 0 0 0-2-2H5a2 2 0 0 0-2 2z" /><path d="M8 16h.01" /></g></svg>
